<svg aria-hidden="true" style="position: absolute; width: 0; height: 0; overflow: hidden;" version="1.1"
xmlns="http://www.w3.org/2000/svg"
xmlns:xlink="http://www.w3.org/1999/xlink">
<defs>

<symbol id="icon-close" viewBox="0 0 32 32">
<path stroke-linejoin="miter" stroke-linecap="butt" stroke-miterlimit="4" stroke-width="2.1333" d="M8.533 8.533l14.933 14.933M8.533 23.467l14.933-14.933"></path>
</symbol>

<symbol id="icon-logo" viewBox="0 0 32 32">
<path fill="none" stroke-linejoin="round" stroke-linecap="round" stroke-miterlimit="4" stroke-width="2.6667" d="M26.427 2.667h-20.853c-1.605 0-2.907 1.301-2.907 2.907v0 20.853c0 1.605 1.301 2.907 2.907 2.907v0h20.853c1.605 0 2.907-1.301 2.907-2.907v0-20.853c0-1.605-1.301-2.907-2.907-2.907v0zM9.333 2.667v26.667M22.667 2.667v26.667M2.667 16h26.667M2.667 9.333h6.667M2.667 22.667h6.667M22.667 22.667h6.667M22.667 9.333h6.667"></path>
</symbol>

<symbol id="icon-search-2" viewBox="0 0 32 32">
<path fill="none" stroke="#fff" style="stroke: var(--color1, #fff)" stroke-linejoin="round" stroke-linecap="round" stroke-miterlimit="4" stroke-width="2.6667" d="M14.667 25.333c5.891 0 10.667-4.776 10.667-10.667s-4.776-10.667-10.667-10.667c-5.891 0-10.667 4.776-10.667 10.667s4.776 10.667 10.667 10.667z"></path>
<path fill="none" stroke="#fff" style="stroke: var(--color1, #fff)" stroke-linejoin="round" stroke-linecap="round" stroke-miterlimit="4" stroke-width="2.6667" d="M28 28l-5.8-5.8"></path>
</symbol>

<symbol id="icon-circle-up" viewBox="0 0 32 32">
<path d="M0 16c0 8.837 7.163 16 16 16s16-7.163 16-16-7.163-16-16-16-16 7.163-16 16zM29 16c0 7.18-5.82 13-13 13s-13-5.82-13-13 5.82-13 13-13 13 5.82 13 13z"></path>
<path d="M22.086 20.914l2.829-2.829-8.914-8.914-8.914 8.914 2.828 2.828 6.086-6.086z"></path>
</symbol>

<symbol id="icon-film" viewBox="0 0 32 32">
<path fill="none" stroke="#818181" style="stroke: var(--color2, #818181)" stroke-linejoin="round" stroke-linecap="round" stroke-miterlimit="4" stroke-width="2.6667" d="M26.427 2.667h-20.853c-1.605 0-2.907 1.301-2.907 2.907v20.853c0 1.605 1.301 2.907 2.907 2.907h20.853c1.605 0 2.907-1.301 2.907-2.907v-20.853c0-1.605-1.301-2.907-2.907-2.907z"></path>
<path fill="none" stroke="#818181" style="stroke: var(--color2, #818181)" stroke-linejoin="round" stroke-linecap="round" stroke-miterlimit="4" stroke-width="2.6667" d="M9.333 2.667v26.667"></path>
<path fill="none" stroke="#818181" style="stroke: var(--color2, #818181)" stroke-linejoin="round" stroke-linecap="round" stroke-miterlimit="4" stroke-width="2.6667" d="M22.667 2.667v26.667"></path>
<path fill="none" stroke="#818181" style="stroke: var(--color2, #818181)" stroke-linejoin="round" stroke-linecap="round" stroke-miterlimit="4" stroke-width="2.6667" d="M2.667 16h26.667"></path>
<path fill="none" stroke="#818181" style="stroke: var(--color2, #818181)" stroke-linejoin="round" stroke-linecap="round" stroke-miterlimit="4" stroke-width="2.6667" d="M2.667 9.333h6.667"></path>
<path fill="none" stroke="#818181" style="stroke: var(--color2, #818181)" stroke-linejoin="round" stroke-linecap="round" stroke-miterlimit="4" stroke-width="2.6667" d="M2.667 22.667h6.667"></path>
<path fill="none" stroke="#818181" style="stroke: var(--color2, #818181)" stroke-linejoin="round" stroke-linecap="round" stroke-miterlimit="4" stroke-width="2.6667" d="M22.667 22.667h6.667"></path>
<path fill="none" stroke="#818181" style="stroke: var(--color2, #818181)" stroke-linejoin="round" ></path>
</symbol>

<symbol id="icon-day" viewBox="0 0 32 32">
<path d="M16 22.094c-4.83 0-8.761-3.931-8.761-8.763 0-3.164 1.677-6.031 4.407-7.594v-4.976c0-0.42 0.341-0.761 0.761-0.761h7.183c0.42 0 0.761 0.341 0.761 0.761v4.976c2.73 1.563 4.407 4.43 4.407 7.594 0.002 4.832-3.928 8.763-8.758 8.763zM13.17 1.522v4.669c0 0.286-0.161 0.549-0.418 0.679-2.461 1.242-3.99 3.718-3.99 6.462 0 3.992 3.248 7.241 7.239 7.241s7.238-3.249 7.238-7.241c0-2.744-1.528-5.22-3.99-6.46-0.256-0.129-0.417-0.393-0.417-0.68v-4.669h-5.661z"></path>
<path d="M16.417 32c-0.709 0-1.286-0.577-1.286-1.287v-4.509c0-0.709 0.577-1.284 1.286-1.284 0.708 0 1.284 0.575 1.284 1.284v4.509c-0.002 0.711-0.577 1.287-1.284 1.287zM16.417 25.984c-0.122 0-0.221 0.099-0.221 0.221v4.509c0 0.244 0.44 0.245 0.438 0v-4.509c-0-0.12-0.097-0.221-0.218-0.221z"></path>
<path d="M6.373 28.215c-0.342 0-0.663-0.132-0.905-0.373-0.501-0.499-0.502-1.316-0.002-1.819l3.191-3.191c0.486-0.484 1.33-0.481 1.814-0.003 0.501 0.504 0.501 1.318 0.003 1.819l-3.191 3.19c-0.242 0.244-0.566 0.377-0.91 0.377zM9.566 23.522c-0.034 0-0.1 0.009-0.155 0.064l-3.19 3.188c-0.087 0.090-0.088 0.227 0 0.314 0.11 0.11 0.196 0.111 0.31-0.002l3.191-3.19c0.085-0.087 0.085-0.225 0-0.312-0.056-0.053-0.123-0.062-0.157-0.062z"></path>
<path d="M25.626 28.905c-0.344 0-0.667-0.134-0.91-0.377l-3.19-3.19c-0.499-0.501-0.499-1.315 0-1.816 0.482-0.487 1.332-0.487 1.817 0l3.19 3.193c0.242 0.239 0.376 0.562 0.376 0.907 0 0.344-0.132 0.667-0.376 0.909-0.241 0.241-0.565 0.374-0.907 0.374zM22.436 24.21c-0.034 0-0.099 0.008-0.154 0.064-0.087 0.087-0.087 0.225 0 0.312l3.19 3.19c0.111 0.108 0.196 0.11 0.312 0 0.056-0.056 0.064-0.12 0.064-0.155s-0.008-0.097-0.064-0.154l-3.193-3.194c-0.056-0.055-0.122-0.062-0.155-0.062z"></path>
</symbol>

<symbol id="icon-night" viewBox="0 0 32 32">
<path fill="none" stroke="#fff" style="stroke: var(--color1, #fff)" stroke-linejoin="round" stroke-linecap="round" stroke-miterlimit="4" stroke-width="1.0667" d="M22.667 16c0 3.682-2.985 6.667-6.667 6.667s-6.667-2.985-6.667-6.667c0-3.682 2.985-6.667 6.667-6.667s6.667 2.985 6.667 6.667z"></path>
<path fill="none" stroke="#fff" style="stroke: var(--color1, #fff)" stroke-linejoin="round" stroke-linecap="round" stroke-miterlimit="4" stroke-width="1.0667" d="M16 1.333v2.667"></path>
<path fill="none" stroke="#fff" style="stroke: var(--color1, #fff)" stroke-linejoin="round" stroke-linecap="round" stroke-miterlimit="4" stroke-width="1.0667" d="M16 28v2.667"></path>
<path fill="none" stroke="#fff" style="stroke: var(--color1, #fff)" stroke-linejoin="round" stroke-linecap="round" stroke-miterlimit="4" stroke-width="1.0667" d="M5.627 5.627l1.893 1.893"></path>
<path fill="none" stroke="#fff" style="stroke: var(--color1, #fff)" stroke-linejoin="round" stroke-linecap="round" stroke-miterlimit="4" stroke-width="1.0667" d="M24.48 24.48l1.893 1.893"></path>
<path fill="none" stroke="#fff" style="stroke: var(--color1, #fff)" stroke-linejoin="round" stroke-linecap="round" stroke-miterlimit="4" stroke-width="1.0667" d="M1.333 16h2.667"></path>
<path fill="none" stroke="#fff" style="stroke: var(--color1, #fff)" stroke-linejoin="round" stroke-linecap="round" stroke-miterlimit="4" stroke-width="1.0667" d="M28 16h2.667"></path>
<path fill="none" stroke="#fff" style="stroke: var(--color1, #fff)" stroke-linejoin="round" stroke-linecap="round" stroke-miterlimit="4" stroke-width="1.0667" d="M5.627 26.373l1.893-1.893"></path>
<path fill="none" stroke="#fff" style="stroke: var(--color1, #fff)" stroke-linejoin="round" stroke-linecap="round" stroke-miterlimit="4" stroke-width="1.0667" d="M24.48 7.52l1.893-1.893"></path>
</symbol>

<symbol id = "icon-filter" viewBox="0 0 30 30"> 
<path  d="M17 11H4a1 1 0 0 1 0-2h13a1 1 0 0 1 0 2zm9 0h-4a1 1 0 0 1 0-2h4a1 1 0 0 1 0 2z"/>
<path  d="M19.5 13.5A3.5 3.5 0 1 1 23 10a3.5 3.5 0 0 1-3.5 3.5zm0-5A1.5 1.5 0 1 0 21 10a1.5 1.5 0 0 0-1.5-1.5zM26 21H13a1 1 0 0 1 0-2h13a1 1 0 0 1 0 2zM8 21H4a1 1 0 0 1 0-2h4a1 1 0 0 1 0 2z"/>
<path  d="M10.5 23.5A3.5 3.5 0 1 1 14 20a3.5 3.5 0 0 1-3.5 3.5Zm0-5A1.5 1.5 0 1 0 12 20a1.5 1.5 0 0 0-1.5-1.5Z"/>
</symbol>
<symbol id="icon-filterOpen" >
<path fill="#34485c" fill-rule="evenodd" style="line-height:normal;text-indent:0;text-align:start;text-decoration-line:none;text-decoration-style:solid;text-decoration-color:#000;text-transform:none;block-progression:tb;isolation:auto;mix-blend-mode:normal" d="m -929.09994,911.3622 0.69993,0.69993 -5.29997,5.30007 -5.29997,-5.30007 0.69993,-0.69993 4.60004,4.60004 4.60004,-4.60004 z" color="#000" font-family="sans-serif" font-weight="400" overflow="visible" transform="translate(942 -906.362)"/>
</symbol>

<symbol id="icon-logo" viewBox="0 0 32 32">
<path fill="none" stroke-linejoin="round" stroke-linecap="round" stroke-miterlimit="4" stroke-width="2.6667" d="M26.427 2.667h-20.853c-1.605 0-2.907 1.301-2.907 2.907v0 20.853c0 1.605 1.301 2.907 2.907 2.907v0h20.853c1.605 0 2.907-1.301 2.907-2.907v0-20.853c0-1.605-1.301-2.907-2.907-2.907v0zM9.333 2.667v26.667M22.667 2.667v26.667M2.667 16h26.667M2.667 9.333h6.667M2.667 22.667h6.667M22.667 22.667h6.667M22.667 9.333h6.667"></path>
<symbol id="icon-search-2" viewBox="0 0 32 32">
<path fill="none" stroke="#fff" style="stroke: var(--color1, #fff)" stroke-linejoin="round" stroke-linecap="round" stroke-miterlimit="4" stroke-width="2.6667" d="M14.667 25.333c5.891 0 10.667-4.776 10.667-10.667s-4.776-10.667-10.667-10.667c-5.891 0-10.667 4.776-10.667 10.667s4.776 10.667 10.667 10.667z"></path>
<path fill="none" stroke="#fff" style="stroke: var(--color1, #fff)" stroke-linejoin="round" stroke-linecap="round" stroke-miterlimit="4" stroke-width="2.6667" d="M28 28l-5.8-5.8"></path>
</symbol>

<symbol id="icon-film" viewBox="0 0 32 32">
<path fill="none" stroke="#818181" style="stroke: var(--color2, #818181)" stroke-linejoin="round" stroke-linecap="round" stroke-miterlimit="4" stroke-width="2.6667" d="M26.427 2.667h-20.853c-1.605 0-2.907 1.301-2.907 2.907v20.853c0 1.605 1.301 2.907 2.907 2.907h20.853c1.605 0 2.907-1.301 2.907-2.907v-20.853c0-1.605-1.301-2.907-2.907-2.907z"></path>
<path fill="none" stroke="#818181" style="stroke: var(--color2, #818181)" stroke-linejoin="round" stroke-linecap="round" stroke-miterlimit="4" stroke-width="2.6667" d="M9.333 2.667v26.667"></path>
<path fill="none" stroke="#818181" style="stroke: var(--color2, #818181)" stroke-linejoin="round" stroke-linecap="round" stroke-miterlimit="4" stroke-width="2.6667" d="M22.667 2.667v26.667"></path>
<path fill="none" stroke="#818181" style="stroke: var(--color2, #818181)" stroke-linejoin="round" stroke-linecap="round" stroke-miterlimit="4" stroke-width="2.6667" d="M2.667 16h26.667"></path>
<path fill="none" stroke="#818181" style="stroke: var(--color2, #818181)" stroke-linejoin="round" stroke-linecap="round" stroke-miterlimit="4" stroke-width="2.6667" d="M2.667 9.333h6.667"></path>
<path fill="none" stroke="#818181" style="stroke: var(--color2, #818181)" stroke-linejoin="round" stroke-linecap="round" stroke-miterlimit="4" stroke-width="2.6667" d="M2.667 22.667h6.667"></path>
<path fill="none" stroke="#818181" style="stroke: var(--color2, #818181)" stroke-linejoin="round" stroke-linecap="round" stroke-miterlimit="4" stroke-width="2.6667" d="M22.667 22.667h6.667"></path>
</symbol>

</defs>
</svg>
